<svg xmlns="http://www.w3.org/2000/svg" xmlns:xlink="http://www.w3.org/1999/xlink" width="1513.583" height="819.946" viewBox="0 0 1513.583 819.946">
  <defs>
    <linearGradient id="linear-gradient" x1="1.876" y1="0.5" x2="0.877" y2="0.5" gradientUnits="objectBoundingBox">
      <stop offset="0" stop-color="#f6f3ff"/>
      <stop offset="1" stop-color="#e5d6ff"/>
    </linearGradient>
    <linearGradient id="linear-gradient-2" x1="-0.256" y1="0.907" x2="0.288" y2="0.614" xlink:href="#linear-gradient"/>
  </defs>
  <g id="submit_bg" transform="translate(-43 -4576)">
    <g id="Group_2186" data-name="Group 2186" transform="translate(642 -2465.482)" opacity="0.02">
      <path id="Path_9679" data-name="Path 9679" d="M303.26,264.746h-82.4a5.356,5.356,0,0,1-5.362-5.362V176.962a5.356,5.356,0,0,1,5.362-5.362h82.422a5.356,5.356,0,0,1,5.362,5.362v82.422A5.392,5.392,0,0,1,303.26,264.746Z" transform="translate(-572.562 7221.882)" fill="blue"/>
      <path id="Path_11388" data-name="Path 11388" d="M303.26,264.746h-82.4a5.356,5.356,0,0,1-5.362-5.362V176.962a5.356,5.356,0,0,1,5.362-5.362h82.422a5.356,5.356,0,0,1,5.362,5.362v82.422A5.392,5.392,0,0,1,303.26,264.746Z" transform="translate(-804.562 6869.882)" fill="blue"/>
      <path id="Path_9694" data-name="Path 9694" d="M305.726,267.363H221.013a5.507,5.507,0,0,1-5.513-5.513V177.113a5.507,5.507,0,0,1,5.513-5.513h84.738a5.507,5.507,0,0,1,5.513,5.513v84.738A5.543,5.543,0,0,1,305.726,267.363Z" transform="translate(475.249 7544.102)" fill="blue"/>
      <path id="Path_11386" data-name="Path 11386" d="M265.348,224.507h-46.8a3.042,3.042,0,0,1-3.046-3.046V174.646a3.042,3.042,0,0,1,3.046-3.046h46.816a3.042,3.042,0,0,1,3.046,3.046v46.816A3.063,3.063,0,0,1,265.348,224.507Z" transform="translate(380.296 7284.382)" fill="blue"/>
      <path id="Path_9692" data-name="Path 9692" d="M322.455,285.119H222.035a6.528,6.528,0,0,1-6.535-6.535V178.135a6.528,6.528,0,0,1,6.535-6.535H322.484a6.528,6.528,0,0,1,6.535,6.535V278.584A6.571,6.571,0,0,1,322.455,285.119Z" transform="translate(545.2 6912.104)" fill="blue"/>
      <path id="Path_9680" data-name="Path 9680" d="M585.707,521.509H536.776a3.174,3.174,0,0,1-3.176-3.176V469.376a3.174,3.174,0,0,1,3.176-3.176h48.931a3.174,3.174,0,0,1,3.176,3.176v48.931A3.2,3.2,0,0,1,585.707,521.509Z" transform="translate(-820.731 7006.043)" fill="blue"/>
      <path id="Path_11387" data-name="Path 11387" d="M585.707,521.509H536.776a3.174,3.174,0,0,1-3.176-3.176V469.376a3.174,3.174,0,0,1,3.176-3.176h48.931a3.174,3.174,0,0,1,3.176,3.176v48.931A3.2,3.2,0,0,1,585.707,521.509Z" transform="translate(-1052.731 6654.043)" fill="blue"/>
      <path id="Path_9693" data-name="Path 9693" d="M582.823,518.448H536.6a3,3,0,0,1-3-3V469.2a3,3,0,0,1,3-3h46.223a3,3,0,0,1,3,3v46.223A3.019,3.019,0,0,1,582.823,518.448Z" transform="translate(234.74 7321.361)" fill="blue"/>
      <path id="Path_11385" data-name="Path 11385" d="M560.795,495.066H535.258a1.656,1.656,0,0,1-1.658-1.658V467.858a1.656,1.656,0,0,1,1.658-1.658h25.537a1.656,1.656,0,0,1,1.658,1.658v25.537A1.668,1.668,0,0,1,560.795,495.066Z" transform="translate(105.064 7032.436)" fill="blue"/>
      <path id="Path_9691" data-name="Path 9691" d="M591.95,528.135H537.156a3.554,3.554,0,0,1-3.556-3.556V469.757a3.554,3.554,0,0,1,3.556-3.556H591.95a3.554,3.554,0,0,1,3.556,3.556v54.793A3.579,3.579,0,0,1,591.95,528.135Z" transform="translate(319.077 6702.686)" fill="blue"/>
      <path id="Path_9681" data-name="Path 9681" d="M1807.326,351.073h-57.18a6.24,6.24,0,0,1-6.247-6.247V287.647a6.24,6.24,0,0,1,6.247-6.247h57.18a6.24,6.24,0,0,1,6.247,6.247v57.179A6.223,6.223,0,0,1,1807.326,351.073Z" transform="translate(-1523.302 7191.835)" fill="blue"/>
      <path id="Path_9690" data-name="Path 9690" d="M1818.248,363.071h-67.026a7.314,7.314,0,0,1-7.323-7.323V288.723a7.314,7.314,0,0,1,7.323-7.323h67.026a7.314,7.314,0,0,1,7.323,7.323v67.025A7.294,7.294,0,0,1,1818.248,363.071Z" transform="translate(-2342.9 7432.516)" fill="blue"/>
      <path id="Path_9682" data-name="Path 9682" d="M2029.5,496.645H1886.667a8.259,8.259,0,0,1-8.267-8.267V451.667a8.259,8.259,0,0,1,8.267-8.267H2029.5a8.259,8.259,0,0,1,8.267,8.267v36.711A8.294,8.294,0,0,1,2029.5,496.645Z" transform="translate(-1622.048 7084.017)" fill="blue"/>
      <path id="Path_9689" data-name="Path 9689" d="M2055.514,505.814H1888.091a9.681,9.681,0,0,1-9.691-9.691V453.091a9.681,9.681,0,0,1,9.691-9.691h167.423a9.681,9.681,0,0,1,9.691,9.691v43.032A9.722,9.722,0,0,1,2055.514,505.814Z" transform="translate(-2435.49 7320.995)" fill="blue"/>
      <g id="Group_1567" data-name="Group 1567" transform="translate(-272.744 7810.139)">
        <path id="Path_9684" data-name="Path 9684" d="M233.145,1369.99a25.645,25.645,0,1,1,25.645-25.645A25.666,25.666,0,0,1,233.145,1369.99Zm0-38.826a13.181,13.181,0,1,0,13.181,13.181A13.205,13.205,0,0,0,233.145,1331.164Z" transform="translate(-207.5 -1318.7)" fill="blue"/>
      </g>
      <g id="Group_1572" data-name="Group 1572" transform="translate(-463.744 7254.716)">
        <path id="Path_9684-2" data-name="Path 9684" d="M233.145,1369.99a25.645,25.645,0,1,1,25.645-25.645A25.666,25.666,0,0,1,233.145,1369.99Zm0-38.826a13.181,13.181,0,1,0,13.181,13.181A13.205,13.205,0,0,0,233.145,1331.164Z" transform="translate(-207.5 -1318.7)" fill="blue"/>
      </g>
      <g id="Group_2187" data-name="Group 2187" transform="translate(753.256 7356.716)">
        <path id="Path_9684-3" data-name="Path 9684" d="M233.145,1369.99a25.645,25.645,0,1,1,25.645-25.645A25.666,25.666,0,0,1,233.145,1369.99Zm0-38.826a13.181,13.181,0,1,0,13.181,13.181A13.205,13.205,0,0,0,233.145,1331.164Z" transform="translate(-207.5 -1318.7)" fill="blue"/>
      </g>
      <g id="Group_2198" data-name="Group 2198" transform="translate(452.256 7068.716)">
        <path id="Path_9684-4" data-name="Path 9684" d="M233.145,1369.99a25.645,25.645,0,1,1,25.645-25.645A25.666,25.666,0,0,1,233.145,1369.99Zm0-38.826a13.181,13.181,0,1,0,13.181,13.181A13.205,13.205,0,0,0,233.145,1331.164Z" transform="translate(-207.5 -1318.7)" fill="blue"/>
      </g>
      <g id="Group_1571" data-name="Group 1571" transform="translate(503.256 7794.139)">
        <path id="Path_9684-5" data-name="Path 9684" d="M233.145,1369.99a25.645,25.645,0,1,1,25.645-25.645A25.666,25.666,0,0,1,233.145,1369.99Zm0-38.826a13.181,13.181,0,1,0,13.181,13.181A13.205,13.205,0,0,0,233.145,1331.164Z" transform="translate(-207.5 -1318.7)" fill="blue"/>
      </g>
      <g id="Ellipse_62" data-name="Ellipse 62" transform="translate(-135.962 7537.984)" fill="none" stroke="blue" stroke-miterlimit="10" stroke-width="10">
        <circle cx="17" cy="17" r="17" stroke="none"/>
        <circle cx="17" cy="17" r="12" fill="none"/>
      </g>
      <g id="Ellipse_67" data-name="Ellipse 67" transform="translate(-231.962 7088)" fill="none" stroke="blue" stroke-miterlimit="10" stroke-width="10">
        <circle cx="17" cy="17" r="17" stroke="none"/>
        <circle cx="17" cy="17" r="12" fill="none"/>
      </g>
      <g id="Ellipse_65" data-name="Ellipse 65" transform="translate(579.038 7255.125)" fill="none" stroke="blue" stroke-miterlimit="10" stroke-width="10">
        <circle cx="17" cy="17" r="17" stroke="none"/>
        <circle cx="17" cy="17" r="12" fill="none"/>
      </g>
      <g id="Ellipse_63" data-name="Ellipse 63" transform="translate(-516.962 7466.94)" fill="none" stroke="blue" stroke-miterlimit="10" stroke-width="10">
        <circle cx="17" cy="17" r="17" stroke="none"/>
        <circle cx="17" cy="17" r="12" fill="none"/>
      </g>
      <g id="Ellipse_64" data-name="Ellipse 64" transform="translate(812.038 7580.253)" fill="none" stroke="blue" stroke-miterlimit="10" stroke-width="10">
        <circle cx="17" cy="17" r="17" stroke="none"/>
        <circle cx="17" cy="17" r="12" fill="none"/>
      </g>
    </g>
    <g id="Group_2007" data-name="Group 2007" transform="translate(1041.104 5036.121) rotate(-30)">
      <path id="Path_10833" data-name="Path 10833" d="M1190.275,610.162h.26a1.04,1.04,0,0,0,0-2.079h-.26a33.311,33.311,0,0,1-8.473-1.118,1.047,1.047,0,1,0-.52,2.027A36.214,36.214,0,0,0,1190.275,610.162Zm9.227-1.43a1.3,1.3,0,0,0,.312-.052,28.611,28.611,0,0,0,8.343-4.315,1.04,1.04,0,1,0-1.248-1.664,26.741,26.741,0,0,1-7.746,4,1.031,1.031,0,0,0-.676,1.3A1.051,1.051,0,0,0,1199.5,608.732Zm-26.486-2.807a1.06,1.06,0,0,0,.936-.6,1.037,1.037,0,0,0-.494-1.378,48.491,48.491,0,0,1-7.668-4.471,1.043,1.043,0,0,0-1.222,1.69,50.837,50.837,0,0,0,8.005,4.679A1.217,1.217,0,0,0,1173.016,605.925Zm-116.886-6.784a1,1,0,0,0,.7-.286c.026-.026,2.521-2.339,6.888-5.926a1.033,1.033,0,1,0-1.325-1.586c-4.393,3.639-6.94,5.978-6.966,6a1.059,1.059,0,0,0-.052,1.482A1.106,1.106,0,0,0,1056.13,599.141Zm157.641-1.118a.978.978,0,0,0,.858-.468,27.179,27.179,0,0,0,3.821-8.6,1.031,1.031,0,1,0-2-.494,25.108,25.108,0,0,1-3.535,7.953,1.04,1.04,0,0,0,.286,1.43A.885.885,0,0,0,1213.771,598.023Zm-55.415-2.7a.941.941,0,0,0,.7-.286,1.059,1.059,0,0,0,.052-1.482,40.572,40.572,0,0,1-5.25-7.122,1.048,1.048,0,1,0-1.819,1.04,42.529,42.529,0,0,0,5.536,7.486A1,1,0,0,0,1158.357,595.32Zm-88.19-7.85a1.058,1.058,0,0,0,.624-.208c2.391-1.845,4.834-3.665,7.278-5.406a1.043,1.043,0,0,0-1.222-1.69c-2.469,1.768-4.938,3.613-7.329,5.458a1.013,1.013,0,0,0-.182,1.455A1.058,1.058,0,0,0,1070.166,587.471Zm147.894-6.758h.1a1.011,1.011,0,0,0,.91-1.144,28.329,28.329,0,0,0-2.6-9.045,1.035,1.035,0,1,0-1.871.884,26.092,26.092,0,0,1,2.391,8.369A1.087,1.087,0,0,0,1218.06,580.713Zm-68.671-1.014a.932.932,0,0,0,.286-.052,1.045,1.045,0,0,0,.7-1.3,34.539,34.539,0,0,1-1.378-8.681,1.04,1.04,0,1,0-2.079.052,35.248,35.248,0,0,0,1.481,9.227A1.029,1.029,0,0,0,1149.389,579.7Zm-64.408-2.833a.936.936,0,0,0,.572-.182c2.521-1.689,5.094-3.353,7.642-4.912A1.039,1.039,0,1,0,1092.1,570c-2.547,1.585-5.146,3.249-7.693,4.938a1.04,1.04,0,0,0-.286,1.43A1,1,0,0,0,1084.982,576.866Zm15.491-9.565a1.282,1.282,0,0,0,.52-.13c2.677-1.508,5.354-2.963,7.979-4.289a1.04,1.04,0,1,0-.962-1.845c-2.651,1.352-5.354,2.807-8.058,4.341a1.052,1.052,0,0,0-.39,1.43A1.12,1.12,0,0,0,1100.473,567.3Zm203.074-.208a1.04,1.04,0,1,0,0-2.079,66.225,66.225,0,0,1-8.915-.676,1.037,1.037,0,0,0-.286,2.053,66.58,66.58,0,0,0,9.2.7Zm-17.96-2.5a1.053,1.053,0,0,0,1.014-.78,1.04,1.04,0,0,0-.754-1.274c-2.781-.7-5.588-1.559-8.629-2.625a1.044,1.044,0,1,0-.676,1.975c3.093,1.066,5.952,1.923,8.785,2.651A.469.469,0,0,0,1285.587,564.6Zm-75.116-.078a1.027,1.027,0,0,0,.78-1.715,42.354,42.354,0,0,0-6.992-6.134,1.046,1.046,0,1,0-1.2,1.715,40.452,40.452,0,0,1,6.654,5.822A1.041,1.041,0,0,0,1210.47,564.52Zm-61.5-2.807a1.053,1.053,0,0,0,1.014-.78,30.625,30.625,0,0,1,3.379-8.083,1.043,1.043,0,1,0-1.793-1.066,32.959,32.959,0,0,0-3.587,8.629,1.039,1.039,0,0,0,.754,1.274A.579.579,0,0,0,1148.974,561.713Zm-32.282-2.7a.762.762,0,0,0,.416-.1q4.211-1.91,8.344-3.509a1.045,1.045,0,1,0-.754-1.949c-2.781,1.066-5.614,2.261-8.447,3.561a1.048,1.048,0,0,0-.52,1.378A1.034,1.034,0,0,0,1116.692,559.01Zm151.689-.26a1.008,1.008,0,0,0,.962-.65,1.033,1.033,0,0,0-.572-1.352c-2.521-1.04-5.25-2.209-8.343-3.587a1.041,1.041,0,1,0-.858,1.9c3.093,1.378,5.848,2.547,8.4,3.613A1.178,1.178,0,0,0,1268.38,558.75Zm-72.6-4.731a1.015,1.015,0,0,0,.936-.6,1.037,1.037,0,0,0-.494-1.378,69.3,69.3,0,0,0-8.578-3.353,1.036,1.036,0,1,0-.624,1.975,69.736,69.736,0,0,1,8.344,3.275A1.692,1.692,0,0,0,1195.785,554.019Zm-62.12-1.559a1.3,1.3,0,0,0,.312-.052c2.937-.936,5.848-1.742,8.708-2.417a1.04,1.04,0,0,0-.468-2.027c-2.885.7-5.874,1.534-8.837,2.469a1.031,1.031,0,0,0-.676,1.3A.976.976,0,0,0,1133.664,552.46Zm118.055-1.092a1.038,1.038,0,0,0,.442-1.975L1250,548.379c-2.027-.936-4.055-1.9-6.108-2.807a1.041,1.041,0,0,0-.858,1.9l6.082,2.807,2.183,1.014A1.177,1.177,0,0,0,1251.72,551.368Zm-73.193-2.937a1.008,1.008,0,0,0,1.014-.858,1.04,1.04,0,0,0-.832-1.222,69.847,69.847,0,0,0-9.149-1.118,1.041,1.041,0,1,0-.1,2.079,70.977,70.977,0,0,1,8.889,1.092A.386.386,0,0,0,1178.526,548.431Zm-27.161-.182h.156c3.015-.468,6.03-.78,8.941-.936a1.041,1.041,0,1,0-.1-2.079c-.26.026-.52.026-.78.052a39.429,39.429,0,0,1,6.29-4.653,1.043,1.043,0,0,0-1.066-1.793,40.5,40.5,0,0,0-7.408,5.614,1.019,1.019,0,0,0-.286.988c-1.949.182-3.9.416-5.9.728a1.056,1.056,0,0,0-.884,1.2A1.038,1.038,0,0,0,1151.365,548.249Zm83.8-4.419a1.077,1.077,0,0,0,.962-.624,1.059,1.059,0,0,0-.546-1.378c-3.041-1.326-5.822-2.443-8.447-3.457a1.045,1.045,0,1,0-.754,1.949c2.6.988,5.354,2.131,8.369,3.431A1.178,1.178,0,0,0,1235.163,543.83Zm-17-6.42a1.038,1.038,0,0,0,.312-2.027c-3.067-.962-6.03-1.741-8.889-2.365a1.05,1.05,0,0,0-.442,2.053c2.781.6,5.692,1.378,8.707,2.313C1217.956,537.384,1218.06,537.41,1218.164,537.41Zm-44.628-.494a1.752,1.752,0,0,0,.364-.052c1.845-.676,3.821-1.273,5.848-1.793.91-.234,1.819-.442,2.755-.624a1.035,1.035,0,1,0-.416-2.027c-.935.182-1.9.416-2.833.65a53.108,53.108,0,0,0-6.056,1.871,1.014,1.014,0,0,0,.338,1.975Zm26.85-3.275a1.042,1.042,0,0,0,.1-2.079,69.172,69.172,0,0,0-9.227-.286,1.041,1.041,0,1,0,.1,2.079,64.924,64.924,0,0,1,8.941.26A.1.1,0,0,0,1200.386,533.642Z" transform="translate(-1055.1 -531.233)" fill="#b5a8ff"/>
    </g>
    <g id="Group_2194" data-name="Group 2194" transform="matrix(0.966, -0.259, 0.259, 0.966, 1272.457, 4924.547)">
      <path id="Path_10832" data-name="Path 10832" d="M870.4,644.2v18.266l67.954-16.6Z" transform="translate(-864.176 -633.726)" fill="#b5a8ff"/>
      <path id="Path_10953" data-name="Path 10953" d="M938.354,647.5,870.4,649.372l8.147,16.141Z" transform="translate(-864.176 -635.355)" fill="url(#linear-gradient)"/>
      <path id="Path_10954" data-name="Path 10954" d="M944.577,635.644,870.4,623.5l6.224,10.474Z" transform="translate(-870.4 -623.5)" fill="url(#linear-gradient-2)"/>
    </g>
  </g>
</svg>
